REM DIRINDEX 1\2,1\3,1\4,1\5
REM DIRNAME "folder01","folder02","folder03","folder04","folder05"
TITLE ""
FILE "1Q_t_0849-0858.mp3" MP3
  TRACK 01 AUDIO
    TITLE "3:cjc172_3497"
    INDEX 01 00:00:00
  TRACK 02 AUDIO
    TITLE "0:"
    INDEX 01 00:01:06
  TRACK 03 AUDIO
    TITLE "4:cjc172_3498"
    INDEX 01 00:01:16
  TRACK 04 AUDIO
    TITLE "0:"
    INDEX 01 00:03:63
  TRACK 05 AUDIO
    TITLE "5:cjc172_3499"
    INDEX 01 00:03:69
  TRACK 06 AUDIO
    TITLE "0:"
    INDEX 01 00:09:35
  TRACK 07 AUDIO
    TITLE "3:cjc172_3500"
    INDEX 01 00:10:07
  TRACK 08 AUDIO
    TITLE "0:"
    INDEX 01 00:11:39
  TRACK 09 AUDIO
    TITLE "4:cjc172_3501"
    INDEX 01 00:11:47
  TRACK 10 AUDIO
    TITLE "0:"
    INDEX 01 00:13:48
  TRACK 11 AUDIO
    TITLE "5:cjc172_3502"
    INDEX 01 00:13:56
  TRACK 12 AUDIO
    TITLE "0:"
    INDEX 01 00:20:46
  TRACK 13 AUDIO
    TITLE "3:cjc172_3503"
    INDEX 01 00:21:14
  TRACK 14 AUDIO
    TITLE "0:"
    INDEX 01 00:22:28
  TRACK 15 AUDIO
    TITLE "4:cjc172_3504"
    INDEX 01 00:22:35
  TRACK 16 AUDIO
    TITLE "0:"
    INDEX 01 00:24:52
  TRACK 17 AUDIO
    TITLE "5:cjc172_3505"
    INDEX 01 00:24:58
  TRACK 18 AUDIO
    TITLE "0:"
    INDEX 01 00:30:37
  TRACK 19 AUDIO
    TITLE "3:cjc172_3506"
    INDEX 01 00:31:13
  TRACK 20 AUDIO
    TITLE "0:"
    INDEX 01 00:32:26
  TRACK 21 AUDIO
    TITLE "4:cjc172_3507"
    INDEX 01 00:32:32
  TRACK 22 AUDIO
    TITLE "0:"
    INDEX 01 00:34:43
  TRACK 23 AUDIO
    TITLE "5:cjc172_3508"
    INDEX 01 00:34:48
  TRACK 24 AUDIO
    TITLE "0:"
    INDEX 01 00:40:25
  TRACK 25 AUDIO
    TITLE "3:cjc172_3509"
    INDEX 01 00:40:74
  TRACK 26 AUDIO
    TITLE "0:"
    INDEX 01 00:42:05
  TRACK 27 AUDIO
    TITLE "4:cjc172_3510"
    INDEX 01 00:42:13
  TRACK 28 AUDIO
    TITLE "0:"
    INDEX 01 00:44:23
  TRACK 29 AUDIO
    TITLE "5:cjc172_3511"
    INDEX 01 00:44:29
  TRACK 30 AUDIO
    TITLE "0:"
    INDEX 01 00:49:70
  TRACK 31 AUDIO
    TITLE "3:cjc172_3512"
    INDEX 01 00:50:43
  TRACK 32 AUDIO
    TITLE "0:"
    INDEX 01 00:51:43
  TRACK 33 AUDIO
    TITLE "4:cjc172_3513"
    INDEX 01 00:51:51
  TRACK 34 AUDIO
    TITLE "0:"
    INDEX 01 00:52:64
  TRACK 35 AUDIO
    TITLE "5:cjc172_3514"
    INDEX 01 00:52:72
  TRACK 36 AUDIO
    TITLE "0:"
    INDEX 01 00:57:53
  TRACK 37 AUDIO
    TITLE "3:cjc172_3515"
    INDEX 01 00:58:25
  TRACK 38 AUDIO
    TITLE "0:"
    INDEX 01 00:59:27
  TRACK 39 AUDIO
    TITLE "4:cjc172_3516"
    INDEX 01 00:59:35
  TRACK 40 AUDIO
    TITLE "0:"
    INDEX 01 01:03:52
  TRACK 41 AUDIO
    TITLE "5:cjc172_3517"
    INDEX 01 01:03:60
  TRACK 42 AUDIO
    TITLE "0:"
    INDEX 01 01:09:31
  TRACK 43 AUDIO
    TITLE "3:cjc172_3518"
    INDEX 01 01:10:03
  TRACK 44 AUDIO
    TITLE "0:"
    INDEX 01 01:11:18
  TRACK 45 AUDIO
    TITLE "4:cjc172_3519"
    INDEX 01 01:11:34
  TRACK 46 AUDIO
    TITLE "0:"
    INDEX 01 01:14:17
  TRACK 47 AUDIO
    TITLE "5:cjc172_3520"
    INDEX 01 01:14:24
  TRACK 48 AUDIO
    TITLE "0:"
    INDEX 01 01:20:21
  TRACK 49 AUDIO
    TITLE "3:cjc172_3521"
    INDEX 01 01:20:68
  TRACK 50 AUDIO
    TITLE "0:"
    INDEX 01 01:22:04
  TRACK 51 AUDIO
    TITLE "4:cjc172_3522"
    INDEX 01 01:22:12
  TRACK 52 AUDIO
    TITLE "0:"
    INDEX 01 01:23:16
  TRACK 53 AUDIO
    TITLE "5:cjc172_3523"
    INDEX 01 01:23:21
  TRACK 54 AUDIO
    TITLE "0:"
    INDEX 01 01:28:52
  TRACK 55 AUDIO
    TITLE "3:cjc172_3524"
    INDEX 01 01:29:22
  TRACK 56 AUDIO
    TITLE "0:"
    INDEX 01 01:30:29
  TRACK 57 AUDIO
    TITLE "4:cjc172_3525"
    INDEX 01 01:30:39
  TRACK 58 AUDIO
    TITLE "0:"
    INDEX 01 01:32:58
  TRACK 59 AUDIO
    TITLE "5:cjc172_3526"
    INDEX 01 01:32:63
  TRACK 60 AUDIO
    TITLE "0:"
    INDEX 01 01:37:57
